{
  "accessors": [
    {
      "bufferView": 2,
      "componentType": 5126,
      "count": 43,
      "max": [
        0.007804424036294222,
        0.21597909927368164,
        1.5523960590362549
      ],
      "min": [
        -0.11487960070371628,
        0.1351868063211441,
        1.418131947517395
      ],
      "type": "VEC3"
    },
    {
      "bufferView": 2,
      "byteOffset": 516,
      "componentType": 5126,
      "count": 43,
      "max": [
        0.9751937985420227,
        0.9928638935089111,
        0.9266849160194397
      ],
      "min": [
        -0.9751937985420227,
        -0.9829578995704651,
        -0.9224568009376526
      ],
      "type": "VEC3"
    },
    {
      "bufferView": 1,
      "componentType": 5126,
      "count": 43,
      "max": [
        1.0,
        1.0
      ],
      "min": [
        -5.9604641222676946e-08,
        -5.9604641222676946e-08
      ],
      "type": "VEC2"
    },
    {
      "bufferView": 0,
      "componentType": 5125,
      "count": 246,
      "type": "SCALAR"
    },
    {
      "bufferView": 2,
      "byteOffset": 1032,
      "componentType": 5126,
      "count": 115,
      "max": [
        0.044283680617809296,
        0.0940202921628952,
        1.7966530323028564
      ],
      "min": [
        -0.151452898979187,
        -0.130303293466568,
        1.524366021156311
      ],
      "type": "VEC3"
    },
    {
      "bufferView": 2,
      "byteOffset": 2412,
      "componentType": 5126,
      "count": 115,
      "max": [
        0.9997450709342957,
        0.9997082352638245,
        0.9760860204696655
      ],
      "min": [
        -0.9997450709342957,
        -0.99776691198349,
        -0.9967648983001709
      ],
      "type": "VEC3"
    },
    {
      "bufferView": 1,
      "byteOffset": 344,
      "componentType": 5126,
      "count": 115,
      "max": [
        1.0,
        1.0
      ],
      "min": [
        2.9802320611338473e-08,
        2.9802320611338473e-08
      ],
      "type": "VEC2"
    },
    {
      "bufferView": 0,
      "byteOffset": 984,
      "componentType": 5125,
      "count": 636,
      "type": "SCALAR"
    },
    {
      "bufferView": 2,
      "byteOffset": 3792,
      "componentType": 5126,
      "count": 238,
      "max": [
        0.22078900039196014,
        0.08432870358228683,
        1.5972909927368164
      ],
      "min": [
        -0.3188742995262146,
        -0.35998839139938354,
        -0.010758399963378906
      ],
      "type": "VEC3"
    },
    {
      "bufferView": 2,
      "byteOffset": 6648,
      "componentType": 5126,
      "count": 238,
      "max": [
        0.9879364967346191,
        0.9999964237213135,
        0.9256865978240967
      ],
      "min": [
        -0.9879363775253296,
        -0.999963641166687,
        -0.9705290198326111
      ],
      "type": "VEC3"
    },
    {
      "bufferView": 1,
      "byteOffset": 1264,
      "componentType": 5126,
      "count": 238,
      "max": [
        0.9862030744552612,
        1.0
      ],
      "min": [
        0.0,
        0.0
      ],
      "type": "VEC2"
    },
    {
      "bufferView": 0,
      "byteOffset": 3528,
      "componentType": 5125,
      "count": 1416,
      "type": "SCALAR"
    },
    {
      "bufferView": 2,
      "byteOffset": 9504,
      "componentType": 5126,
      "count": 8,
      "max": [
        -0.022728290408849716,
        0.349539190530777,
        1.4707800149917603
      ],
      "min": [
        -0.08215323090553284,
        0.14008119702339172,
        -0.06459326297044754
      ],
      "type": "VEC3"
    },
    {
      "bufferView": 2,
      "byteOffset": 9600,
      "componentType": 5126,
      "count": 8,
      "max": [
        0.9963148832321167,
        0.9955092072486877,
        0.10420111566781998
      ],
      "min": [
        -0.9373456239700317,
        -0.9482311010360718,
        -0.10307421535253525
      ],
      "type": "VEC3"
    },
    {
      "bufferView": 1,
      "byteOffset": 3168,
      "componentType": 5126,
      "count": 8,
      "max": [
        1.0,
        1.0
      ],
      "min": [
        0.0,
        2.9802320611338473e-08
      ],
      "type": "VEC2"
    },
    {
      "bufferView": 0,
      "byteOffset": 9192,
      "componentType": 5125,
      "count": 24,
      "type": "SCALAR"
    },
    {
      "bufferView": 2,
      "byteOffset": 9696,
      "componentType": 5126,
      "count": 105,
      "max": [
        0.24186940491199493,
        0.20867270231246948,
        1.7256360054016113
      ],
      "min": [
        -0.3399546146392822,
        -0.17086109519004822,
        0.7458254098892212
      ],
      "type": "VEC3"
    },
    {
      "bufferView": 2,
      "byteOffset": 10956,
      "componentType": 5126,
      "count": 105,
      "max": [
        0.973180890083313,
        0.9718419909477234,
        0.8675163984298706
      ],
      "min": [
        -0.9731810092926025,
        -0.9999827742576599,
        -0.9826933741569519
      ],
      "type": "VEC3"
    },
    {
      "bufferView": 1,
      "byteOffset": 3232,
      "componentType": 5126,
      "count": 105,
      "max": [
        1.0,
        1.0
      ],
      "min": [
        0.0,
        -5.9604641222676946e-08
      ],
      "type": "VEC2"
    },
    {
      "bufferView": 0,
      "byteOffset": 9288,
      "componentType": 5125,
      "count": 378,
      "type": "SCALAR"
    },
    {
      "bufferView": 2,
      "byteOffset": 12216,
      "componentType": 5126,
      "count": 16,
      "max": [
        -0.010508949868381023,
        0.052639979869127274,
        1.7200870513916016
      ],
      "min": [
        -0.08757594227790833,
        0.02282515913248062,
        1.6670509576797485
      ],
      "type": "VEC3"
    },
    {
      "bufferView": 2,
      "byteOffset": 12408,
      "componentType": 5126,
      "count": 16,
      "max": [
        0.7554711103439331,
        0.6669610738754272,
        0.6916505694389343
      ],
      "min": [
        -0.7554687261581421,
        -0.15185761451721191,
        -0.7208256721496582
      ],
      "type": "VEC3"
    },
    {
      "bufferView": 1,
      "byteOffset": 4072,
      "componentType": 5126,
      "count": 16,
      "max": [
        1.0,
        1.0
      ],
      "min": [
        0.0,
        0.0
      ],
      "type": "VEC2"
    },
    {
      "bufferView": 0,
      "byteOffset": 10800,
      "componentType": 5125,
      "count": 60,
      "type": "SCALAR"
    },
    {
      "bufferView": 2,
      "byteOffset": 12600,
      "componentType": 5126,
      "count": 16,
      "max": [
        -0.013360530138015747,
        0.05781570076942444,
        1.706676959991455
      ],
      "min": [
        -0.08709923177957535,
        0.04057557135820389,
        1.6725009679794312
      ],
      "type": "VEC3"
    },
    {
      "bufferView": 2,
      "byteOffset": 12792,
      "componentType": 5126,
      "count": 16,
      "max": [
        0.766588032245636,
        0.6095645427703857,
        0.7368999719619751
      ],
      "min": [
        -0.7839344143867493,
        -0.07574450969696045,
        -0.7524024844169617
      ],
      "type": "VEC3"
    },
    {
      "bufferView": 1,
      "byteOffset": 4200,
      "componentType": 5126,
      "count": 16,
      "max": [
        1.0,
        1.0
      ],
      "min": [
        0.0,
        -5.9604641222676946e-08
      ],
      "type": "VEC2"
    },
    {
      "bufferView": 0,
      "byteOffset": 11040,
      "componentType": 5125,
      "count": 60,
      "type": "SCALAR"
    },
    {
      "bufferView": 2,
      "byteOffset": 12984,
      "componentType": 5126,
      "count": 126,
      "max": [
        0.12724819779396057,
        0.13677510619163513,
        1.489454984664917
      ],
      "min": [
        -0.25007641315460205,
        -0.028028579428792,
        0.0031347270123660564
      ],
      "type": "VEC3"
    },
    {
      "bufferView": 2,
      "byteOffset": 14496,
      "componentType": 5126,
      "count": 126,
      "max": [
        0.9939461946487427,
        0.9983153343200684,
        0.9002600908279419
      ],
      "min": [
        -0.9939461946487427,
        -0.9998964071273804,
        -0.9854696989059448
      ],
      "type": "VEC3"
    },
    {
      "bufferView": 1,
      "byteOffset": 4328,
      "componentType": 5126,
      "count": 126,
      "max": [
        1.0,
        1.0
      ],
      "min": [
        -5.9604641222676946e-08,
        0.0
      ],
      "type": "VEC2"
    },
    {
      "bufferView": 0,
      "byteOffset": 11280,
      "componentType": 5125,
      "count": 660,
      "type": "SCALAR"
    },
    {
      "bufferView": 2,
      "byteOffset": 16008,
      "componentType": 5126,
      "count": 24,
      "max": [
        0.40137240290641785,
        -0.14769859611988068,
        0.17020809650421143
      ],
      "min": [
        0.3235186040401459,
        -0.23321010172367096,
        0.08300918340682983
      ],
      "type": "VEC3"
    },
    {
      "bufferView": 2,
      "byteOffset": 16296,
      "componentType": 5126,
      "count": 24,
      "max": [
        0.8372262120246887,
        0.7590355277061462,
        0.8344328999519348
      ],
      "min": [
        -0.971314013004303,
        -0.9020432829856873,
        -0.7605994343757629
      ],
      "type": "VEC3"
    },
    {
      "bufferView": 1,
      "byteOffset": 5336,
      "componentType": 5126,
      "count": 24,
      "max": [
        1.0,
        1.0
      ],
      "min": [
        2.9802320611338473e-08,
        0.0
      ],
      "type": "VEC2"
    },
    {
      "bufferView": 0,
      "byteOffset": 13920,
      "componentType": 5125,
      "count": 120,
      "type": "SCALAR"
    },
    {
      "bufferView": 2,
      "byteOffset": 16584,
      "componentType": 5126,
      "count": 824,
      "max": [
        0.3230127990245819,
        0.16871879994869232,
        1.8193219900131226
      ],
      "min": [
        -0.42109811305999756,
        -0.3437134921550751,
        -0.008659958839416504
      ],
      "type": "VEC3"
    },
    {
      "bufferView": 2,
      "byteOffset": 26472,
      "componentType": 5126,
      "count": 824,
      "max": [
        0.9999045133590698,
        0.9999982118606567,
        0.9968433976173401
      ],
      "min": [
        -0.9999045133590698,
        -0.9999964237213135,
        -0.9995855093002319
      ],
      "type": "VEC3"
    },
    {
      "bufferView": 1,
      "byteOffset": 5528,
      "componentType": 5126,
      "count": 824,
      "max": [
        1.0,
        1.0
      ],
      "min": [
        -5.9604641222676946e-08,
        -5.9604641222676946e-08
      ],
      "type": "VEC2"
    },
    {
      "bufferView": 0,
      "byteOffset": 14400,
      "componentType": 5125,
      "count": 4932,
      "type": "SCALAR"
    },
    {
      "bufferView": 2,
      "byteOffset": 36360,
      "componentType": 5126,
      "count": 32,
      "max": [
        0.4332425892353058,
        -0.09205947816371918,
        0.11598940193653107
      ],
      "min": [
        0.29168081283569336,
        -0.2613261044025421,
        -0.00817791000008583
      ],
      "type": "VEC3"
    },
    {
      "bufferView": 2,
      "byteOffset": 36744,
      "componentType": 5126,
      "count": 32,
      "max": [
        0.9656863212585449,
        0.9688156843185425,
        0.39588865637779236
      ],
      "min": [
        -0.9666839241981506,
        -0.963601291179657,
        -0.35771289467811584
      ],
      "type": "VEC3"
    },
    {
      "bufferView": 1,
      "byteOffset": 12120,
      "componentType": 5126,
      "count": 32,
      "max": [
        1.0,
        1.0
      ],
      "min": [
        0.0,
        0.0
      ],
      "type": "VEC2"
    },
    {
      "bufferView": 0,
      "byteOffset": 34128,
      "componentType": 5125,
      "count": 156,
      "type": "SCALAR"
    },
    {
      "bufferView": 2,
      "byteOffset": 37128,
      "componentType": 5126,
      "count": 482,
      "max": [
        0.2458212971687317,
        0.24933840334415436,
        1.387802004814148
      ],
      "min": [
        -0.3515790104866028,
        -0.08869156241416931,
        1.1890729665756226
      ],
      "type": "VEC3"
    },
    {
      "bufferView": 2,
      "byteOffset": 42912,
      "componentType": 5126,
      "count": 482,
      "max": [
        0.9726561903953552,
        0.9965022206306458,
        0.9976420998573303
      ],
      "min": [
        -0.9907445907592773,
        -0.9797849059104919,
        -0.9966912269592285
      ],
      "type": "VEC3"
    },
    {
      "bufferView": 1,
      "byteOffset": 12376,
      "componentType": 5126,
      "count": 482,
      "max": [
        1.0,
        1.0
      ],
      "min": [
        2.9802320611338473e-08,
        -5.9604641222676946e-08
      ],
      "type": "VEC2"
    },
    {
      "bufferView": 0,
      "byteOffset": 34752,
      "componentType": 5125,
      "count": 2613,
      "type": "SCALAR"
    },
    {
      "bufferView": 2,
      "byteOffset": 48696,
      "componentType": 5126,
      "count": 24,
      "max": [
        0.4136854112148285,
        -0.13263119757175446,
        0.13014529645442963
      ],
      "min": [
        0.31955841183662415,
        -0.2443535029888153,
        0.050792958587408066
      ],
      "type": "VEC3"
    },
    {
      "bufferView": 2,
      "byteOffset": 48984,
      "componentType": 5126,
      "count": 24,
      "max": [
        0.9305351972579956,
        0.9346796870231628,
        0.5288073420524597
      ],
      "min": [
        -0.9372664093971252,
        -0.9364368915557861,
        -0.02145112119615078
      ],
      "type": "VEC3"
    },
    {
      "bufferView": 1,
      "byteOffset": 16232,
      "componentType": 5126,
      "count": 24,
      "max": [
        1.0,
        1.0
      ],
      "min": [
        2.9802320611338473e-08,
        2.9802320611338473e-08
      ],
      "type": "VEC2"
    },
    {
      "bufferView": 0,
      "byteOffset": 45204,
      "componentType": 5125,
      "count": 108,
      "type": "SCALAR"
    }
  ],
  "asset": {
    "extras": {
      "author": "Anticipateants (https://sketchfab.com/anticipateants)",
      "license": "CC-BY-4.0 (http://creativecommons.org/licenses/by/4.0/)",
      "source": "https://sketchfab.com/3d-models/king-of-worms-daggerfall-necromancer-919bdcac561641ed817187166149be7a",
      "title": "King of Worms Daggerfall Necromancer"
    },
    "generator": "Sketchfab-12.84.0",
    "version": "2.0"
  },
  "bufferViews": [
    {
      "buffer": 0,
      "byteLength": 45636,
      "name": "floatBufferViews",
      "target": 34963
    },
    {
      "buffer": 0,
      "byteLength": 16424,
      "byteOffset": 45636,
      "byteStride": 8,
      "name": "floatBufferViews",
      "target": 34962
    },
    {
      "buffer": 0,
      "byteLength": 49272,
      "byteOffset": 62060,
      "byteStride": 12,
      "name": "floatBufferViews",
      "target": 34962
    }
  ],
  "buffers": [
    {
      "byteLength": 111332,
      "uri": "scene.bin"
    }
  ],
  "extensionsUsed": [
    "KHR_materials_unlit"
  ],
  "materials": [
    {
      "doubleSided": true,
      "extensions": {
        "KHR_materials_unlit": {}
      },
      "name": "Flat0D0D0D",
      "pbrMetallicRoughness": {
        "baseColorFactor": [
          0.0509804,
          0.0509804,
          0.0509804,
          1.0
        ],
        "metallicFactor": 0.0
      }
    },
    {
      "doubleSided": true,
      "extensions": {
        "KHR_materials_unlit": {}
      },
      "name": "FlatC8C784",
      "pbrMetallicRoughness": {
        "baseColorFactor": [
          0.784314,
          0.780392,
          0.517647,
          1.0
        ],
        "metallicFactor": 0.0
      }
    },
    {
      "doubleSided": true,
      "extensions": {
        "KHR_materials_unlit": {}
      },
      "name": "FlatFFFFFF",
      "pbrMetallicRoughness": {
        "metallicFactor": 0.0
      }
    },
    {
      "doubleSided": true,
      "extensions": {
        "KHR_materials_unlit": {}
      },
      "name": "PhongD3BD3E",
      "pbrMetallicRoughness": {
        "baseColorFactor": [
          0.827451,
          0.741176,
          0.243137,
          1.0
        ],
        "metallicFactor": 0.0
      }
    },
    {
      "doubleSided": true,
      "extensions": {
        "KHR_materials_unlit": {}
      },
      "name": "Standard100F10",
      "pbrMetallicRoughness": {
        "baseColorFactor": [
          0.0627451,
          0.0588235,
          0.0627451,
          1.0
        ],
        "metallicFactor": 0.0
      }
    },
    {
      "doubleSided": true,
      "extensions": {
        "KHR_materials_unlit": {}
      },
      "name": "Standard121212",
      "pbrMetallicRoughness": {
        "baseColorFactor": [
          0.0705882,
          0.0705882,
          0.0705882,
          1.0
        ],
        "metallicFactor": 0.0
      }
    },
    {
      "doubleSided": true,
      "extensions": {
        "KHR_materials_unlit": {}
      },
      "name": "Standard191919",
      "pbrMetallicRoughness": {
        "baseColorFactor": [
          0.0980392,
          0.0980392,
          0.0980392,
          1.0
        ],
        "metallicFactor": 0.0
      }
    },
    {
      "doubleSided": true,
      "extensions": {
        "KHR_materials_unlit": {}
      },
      "name": "Standard222223",
      "pbrMetallicRoughness": {
        "baseColorFactor": [
          0.133333,
          0.133333,
          0.137255,
          1.0
        ],
        "metallicFactor": 0.0
      }
    },
    {
      "doubleSided": true,
      "extensions": {
        "KHR_materials_unlit": {}
      },
      "name": "Standard441912",
      "pbrMetallicRoughness": {
        "baseColorFactor": [
          0.266667,
          0.0980392,
          0.0705882,
          1.0
        ],
        "metallicFactor": 0.0
      }
    },
    {
      "doubleSided": true,
      "extensions": {
        "KHR_materials_unlit": {}
      },
      "name": "Standard655E42",
      "pbrMetallicRoughness": {
        "baseColorFactor": [
          0.396078,
          0.368627,
          0.258824,
          1.0
        ],
        "metallicFactor": 0.0
      }
    },
    {
      "doubleSided": true,
      "extensions": {
        "KHR_materials_unlit": {}
      },
      "name": "Standard9E9E9E",
      "pbrMetallicRoughness": {
        "baseColorFactor": [
          0.619608,
          0.619608,
          0.619608,
          1.0
        ],
        "metallicFactor": 0.0
      }
    },
    {
      "doubleSided": true,
      "extensions": {
        "KHR_materials_unlit": {}
      },
      "name": "StandardAE988D",
      "pbrMetallicRoughness": {
        "baseColorFactor": [
          0.682353,
          0.596079,
          0.552941,
          1.0
        ],
        "metallicFactor": 0.0
      }
    },
    {
      "doubleSided": true,
      "extensions": {
        "KHR_materials_unlit": {}
      },
      "name": "StandardEADF8A",
      "pbrMetallicRoughness": {
        "baseColorFactor": [
          0.917647,
          0.87451,
          0.541176,
          1.0
        ],
        "metallicFactor": 0.0
      }
    }
  ],
  "meshes": [
    {
      "name": "Object_0",
      "primitives": [
        {
          "attributes": {
            "NORMAL": 1,
            "POSITION": 0,
            "TEXCOORD_0": 2
          },
          "indices": 3,
          "material": 3,
          "mode": 4
        }
      ]
    },
    {
      "name": "Object_1",
      "primitives": [
        {
          "attributes": {
            "NORMAL": 5,
            "POSITION": 4,
            "TEXCOORD_0": 6
          },
          "indices": 7,
          "material": 4,
          "mode": 4
        }
      ]
    },
    {
      "name": "Object_2",
      "primitives": [
        {
          "attributes": {
            "NORMAL": 9,
            "POSITION": 8,
            "TEXCOORD_0": 10
          },
          "indices": 11,
          "material": 6,
          "mode": 4
        }
      ]
    },
    {
      "name": "Object_3",
      "primitives": [
        {
          "attributes": {
            "NORMAL": 13,
            "POSITION": 12,
            "TEXCOORD_0": 14
          },
          "indices": 15,
          "material": 9,
          "mode": 4
        }
      ]
    },
    {
      "name": "Object_4",
      "primitives": [
        {
          "attributes": {
            "NORMAL": 17,
            "POSITION": 16,
            "TEXCOORD_0": 18
          },
          "indices": 19,
          "material": 0,
          "mode": 4
        }
      ]
    },
    {
      "name": "Object_5",
      "primitives": [
        {
          "attributes": {
            "NORMAL": 21,
            "POSITION": 20,
            "TEXCOORD_0": 22
          },
          "indices": 23,
          "material": 1,
          "mode": 4
        }
      ]
    },
    {
      "name": "Object_6",
      "primitives": [
        {
          "attributes": {
            "NORMAL": 25,
            "POSITION": 24,
            "TEXCOORD_0": 26
          },
          "indices": 27,
          "material": 2,
          "mode": 4
        }
      ]
    },
    {
      "name": "Object_7",
      "primitives": [
        {
          "attributes": {
            "NORMAL": 29,
            "POSITION": 28,
            "TEXCOORD_0": 30
          },
          "indices": 31,
          "material": 5,
          "mode": 4
        }
      ]
    },
    {
      "name": "Object_8",
      "primitives": [
        {
          "attributes": {
            "NORMAL": 33,
            "POSITION": 32,
            "TEXCOORD_0": 34
          },
          "indices": 35,
          "material": 7,
          "mode": 4
        }
      ]
    },
    {
      "name": "Object_9",
      "primitives": [
        {
          "attributes": {
            "NORMAL": 37,
            "POSITION": 36,
            "TEXCOORD_0": 38
          },
          "indices": 39,
          "material": 8,
          "mode": 4
        }
      ]
    },
    {
      "name": "Object_10",
      "primitives": [
        {
          "attributes": {
            "NORMAL": 41,
            "POSITION": 40,
            "TEXCOORD_0": 42
          },
          "indices": 43,
          "material": 10,
          "mode": 4
        }
      ]
    },
    {
      "name": "Object_11",
      "primitives": [
        {
          "attributes": {
            "NORMAL": 45,
            "POSITION": 44,
            "TEXCOORD_0": 46
          },
          "indices": 47,
          "material": 11,
          "mode": 4
        }
      ]
    },
    {
      "name": "Object_12",
      "primitives": [
        {
          "attributes": {
            "NORMAL": 49,
            "POSITION": 48,
            "TEXCOORD_0": 50
          },
          "indices": 51,
          "material": 12,
          "mode": 4
        }
      ]
    }
  ],
  "nodes": [
    {
      "children": [
        1
      ],
      "matrix": [
        1.0,
        0.0,
        0.0,
        0.0,
        0.0,
        2.220446049250313e-16,
        -1.0,
        0.0,
        0.0,
        1.0,
        2.220446049250313e-16,
        0.0,
        0.0,
        0.0,
        0.0,
        1.0
      ],
      "name": "Sketchfab_model"
    },
    {
      "children": [
        2,
        3,
        4,
        5,
        6,
        7,
        8,
        9,
        10,
        11,
        12,
        13,
        14
      ],
      "name": "DFKingOfWormsfixobj.obj.cleaner.materialmerger.gles"
    },
    {
      "mesh": 0,
      "name": "Object_2"
    },
    {
      "mesh": 1,
      "name": "Object_3"
    },
    {
      "mesh": 2,
      "name": "Object_4"
    },
    {
      "mesh": 3,
      "name": "Object_5"
    },
    {
      "mesh": 4,
      "name": "Object_6"
    },
    {
      "mesh": 5,
      "name": "Object_7"
    },
    {
      "mesh": 6,
      "name": "Object_8"
    },
    {
      "mesh": 7,
      "name": "Object_9"
    },
    {
      "mesh": 8,
      "name": "Object_10"
    },
    {
      "mesh": 9,
      "name": "Object_11"
    },
    {
      "mesh": 10,
      "name": "Object_12"
    },
    {
      "mesh": 11,
      "name": "Object_13"
    },
    {
      "mesh": 12,
      "name": "Object_14"
    }
  ],
  "scene": 0,
  "scenes": [
    {
      "name": "Sketchfab_Scene",
      "nodes": [
        0
      ]
    }
  ]
}
